<mxfile host="app.diagrams.net" modified="2023-08-17T04:04:40.607Z" agent="Mozilla/5.0 (Macintosh; Intel Mac OS X 10.15; rv:109.0) Gecko/20100101 Firefox/116.0" etag="kRCZb3qTSLW54B4Tuywp" version="21.3.0" type="device">
  <diagram name="Página-1" id="Le1MOCahUNV-APeSZTkz">
    <mxGraphModel dx="658" dy="426" grid="1" gridSize="10" guides="1" tooltips="1" connect="1" arrows="1" fold="1" page="1" pageScale="1" pageWidth="827" pageHeight="1169" math="0" shadow="0">
      <root>
        <mxCell id="0" />
        <mxCell id="1" parent="0" />
        <mxCell id="5fKytqhqKFqzuMiDaiJH-19" value="" style="group" vertex="1" connectable="0" parent="1">
          <mxGeometry x="40" y="130" width="100" height="390" as="geometry" />
        </mxCell>
        <mxCell id="5fKytqhqKFqzuMiDaiJH-9" value="Servidor Web" style="image;aspect=fixed;perimeter=ellipsePerimeter;html=1;align=center;shadow=0;dashed=0;spacingTop=3;image=img/lib/active_directory/web_server.svg;" vertex="1" parent="5fKytqhqKFqzuMiDaiJH-19">
          <mxGeometry x="40" y="-20" width="40" height="50" as="geometry" />
        </mxCell>
        <mxCell id="5fKytqhqKFqzuMiDaiJH-11" value="" style="group" vertex="1" connectable="0" parent="5fKytqhqKFqzuMiDaiJH-19">
          <mxGeometry y="90" width="100" height="300" as="geometry" />
        </mxCell>
        <mxCell id="5fKytqhqKFqzuMiDaiJH-20" style="edgeStyle=orthogonalEdgeStyle;rounded=0;orthogonalLoop=1;jettySize=auto;html=1;exitX=0.5;exitY=1;exitDx=0;exitDy=0;entryX=0.5;entryY=0;entryDx=0;entryDy=0;" edge="1" parent="5fKytqhqKFqzuMiDaiJH-11" source="5fKytqhqKFqzuMiDaiJH-4" target="5fKytqhqKFqzuMiDaiJH-5">
          <mxGeometry relative="1" as="geometry" />
        </mxCell>
        <mxCell id="5fKytqhqKFqzuMiDaiJH-4" value="&lt;b&gt;1)&lt;/b&gt; Aplicación" style="shape=module;align=left;spacingLeft=20;align=center;verticalAlign=top;whiteSpace=wrap;html=1;fillColor=#eeeeee;strokeColor=#36393d;fontColor=#1A1A1A;" vertex="1" parent="5fKytqhqKFqzuMiDaiJH-11">
          <mxGeometry y="-30" width="100" height="50" as="geometry" />
        </mxCell>
        <mxCell id="5fKytqhqKFqzuMiDaiJH-21" style="edgeStyle=orthogonalEdgeStyle;rounded=0;orthogonalLoop=1;jettySize=auto;html=1;exitX=0.5;exitY=1;exitDx=0;exitDy=0;entryX=0.5;entryY=0;entryDx=0;entryDy=0;" edge="1" parent="5fKytqhqKFqzuMiDaiJH-11" source="5fKytqhqKFqzuMiDaiJH-5" target="5fKytqhqKFqzuMiDaiJH-6">
          <mxGeometry relative="1" as="geometry" />
        </mxCell>
        <mxCell id="5fKytqhqKFqzuMiDaiJH-5" value="&lt;b&gt;2)&lt;/b&gt; Transporte" style="shape=module;align=left;spacingLeft=20;align=center;verticalAlign=top;whiteSpace=wrap;html=1;fillColor=#ffff88;strokeColor=#36393d;fontColor=#1A1A1A;" vertex="1" parent="5fKytqhqKFqzuMiDaiJH-11">
          <mxGeometry y="40" width="100" height="50" as="geometry" />
        </mxCell>
        <mxCell id="5fKytqhqKFqzuMiDaiJH-22" style="edgeStyle=orthogonalEdgeStyle;rounded=0;orthogonalLoop=1;jettySize=auto;html=1;exitX=0.5;exitY=1;exitDx=0;exitDy=0;entryX=0.5;entryY=0;entryDx=0;entryDy=0;" edge="1" parent="5fKytqhqKFqzuMiDaiJH-11" source="5fKytqhqKFqzuMiDaiJH-6" target="5fKytqhqKFqzuMiDaiJH-7">
          <mxGeometry relative="1" as="geometry" />
        </mxCell>
        <mxCell id="5fKytqhqKFqzuMiDaiJH-6" value="&lt;b&gt;3)&lt;/b&gt; Red" style="shape=module;align=left;spacingLeft=20;align=center;verticalAlign=top;whiteSpace=wrap;html=1;fillColor=#cdeb8b;strokeColor=#36393d;fontColor=#1A1A1A;" vertex="1" parent="5fKytqhqKFqzuMiDaiJH-11">
          <mxGeometry y="110" width="100" height="50" as="geometry" />
        </mxCell>
        <mxCell id="5fKytqhqKFqzuMiDaiJH-7" value="&lt;b&gt;4)&lt;/b&gt; Enlace de Datos" style="shape=module;align=left;spacingLeft=20;align=center;verticalAlign=top;whiteSpace=wrap;html=1;fillColor=#ffcccc;strokeColor=#36393d;fontColor=#1A1A1A;" vertex="1" parent="5fKytqhqKFqzuMiDaiJH-11">
          <mxGeometry y="180" width="100" height="50" as="geometry" />
        </mxCell>
        <mxCell id="5fKytqhqKFqzuMiDaiJH-8" value="&lt;b&gt;5)&lt;/b&gt; Física" style="shape=module;align=left;spacingLeft=20;align=center;verticalAlign=top;whiteSpace=wrap;html=1;fillColor=#cce5ff;strokeColor=#36393d;fontColor=#1A1A1A;" vertex="1" parent="5fKytqhqKFqzuMiDaiJH-11">
          <mxGeometry y="250" width="100" height="50" as="geometry" />
        </mxCell>
        <mxCell id="5fKytqhqKFqzuMiDaiJH-23" style="edgeStyle=orthogonalEdgeStyle;rounded=0;orthogonalLoop=1;jettySize=auto;html=1;exitX=0.5;exitY=1;exitDx=0;exitDy=0;entryX=0.5;entryY=0;entryDx=0;entryDy=0;" edge="1" parent="5fKytqhqKFqzuMiDaiJH-11" source="5fKytqhqKFqzuMiDaiJH-7" target="5fKytqhqKFqzuMiDaiJH-8">
          <mxGeometry relative="1" as="geometry" />
        </mxCell>
        <mxCell id="5fKytqhqKFqzuMiDaiJH-24" style="edgeStyle=orthogonalEdgeStyle;rounded=0;orthogonalLoop=1;jettySize=auto;html=1;entryX=-0.01;entryY=0.5;entryDx=0;entryDy=0;entryPerimeter=0;" edge="1" parent="1" source="5fKytqhqKFqzuMiDaiJH-8" target="5fKytqhqKFqzuMiDaiJH-17">
          <mxGeometry relative="1" as="geometry" />
        </mxCell>
        <mxCell id="5fKytqhqKFqzuMiDaiJH-33" style="edgeStyle=orthogonalEdgeStyle;rounded=0;orthogonalLoop=1;jettySize=auto;html=1;entryX=0.75;entryY=0.424;entryDx=0;entryDy=0;entryPerimeter=0;dashed=1;endArrow=none;endFill=0;" edge="1" parent="1" source="5fKytqhqKFqzuMiDaiJH-10" target="5fKytqhqKFqzuMiDaiJH-9">
          <mxGeometry relative="1" as="geometry" />
        </mxCell>
        <mxCell id="5fKytqhqKFqzuMiDaiJH-10" value="Cliente (Navegador Web)" style="image;points=[];aspect=fixed;html=1;align=center;shadow=0;dashed=0;image=img/lib/allied_telesis/computer_and_terminals/Personal_Computer_with_Server.svg;" vertex="1" parent="1">
          <mxGeometry x="239.99999999999994" y="100" width="62.400000000000006" height="62.400000000000006" as="geometry" />
        </mxCell>
        <mxCell id="5fKytqhqKFqzuMiDaiJH-13" value="&lt;b&gt;5)&lt;/b&gt; Aplicación" style="shape=module;align=left;spacingLeft=20;align=center;verticalAlign=top;whiteSpace=wrap;html=1;fillColor=#eeeeee;strokeColor=#36393d;fontColor=#1A1A1A;" vertex="1" parent="1">
          <mxGeometry x="210" y="190" width="100" height="50" as="geometry" />
        </mxCell>
        <mxCell id="5fKytqhqKFqzuMiDaiJH-30" style="edgeStyle=orthogonalEdgeStyle;rounded=0;orthogonalLoop=1;jettySize=auto;html=1;entryX=0.5;entryY=1;entryDx=0;entryDy=0;" edge="1" parent="1" source="5fKytqhqKFqzuMiDaiJH-14" target="5fKytqhqKFqzuMiDaiJH-13">
          <mxGeometry relative="1" as="geometry" />
        </mxCell>
        <mxCell id="5fKytqhqKFqzuMiDaiJH-14" value="&lt;b&gt;4)&lt;/b&gt; Transporte" style="shape=module;align=left;spacingLeft=20;align=center;verticalAlign=top;whiteSpace=wrap;html=1;fillColor=#ffff88;strokeColor=#36393d;fontColor=#1A1A1A;" vertex="1" parent="1">
          <mxGeometry x="210" y="260" width="100" height="50" as="geometry" />
        </mxCell>
        <mxCell id="5fKytqhqKFqzuMiDaiJH-27" style="edgeStyle=orthogonalEdgeStyle;rounded=0;orthogonalLoop=1;jettySize=auto;html=1;exitX=0.5;exitY=0;exitDx=0;exitDy=0;entryX=0.5;entryY=1;entryDx=0;entryDy=0;" edge="1" parent="1" source="5fKytqhqKFqzuMiDaiJH-15" target="5fKytqhqKFqzuMiDaiJH-14">
          <mxGeometry relative="1" as="geometry" />
        </mxCell>
        <mxCell id="5fKytqhqKFqzuMiDaiJH-15" value="&lt;b&gt;3)&lt;/b&gt; Red" style="shape=module;align=left;spacingLeft=20;align=center;verticalAlign=top;whiteSpace=wrap;html=1;fillColor=#cdeb8b;strokeColor=#36393d;fontColor=#1A1A1A;" vertex="1" parent="1">
          <mxGeometry x="210" y="330" width="100" height="50" as="geometry" />
        </mxCell>
        <mxCell id="5fKytqhqKFqzuMiDaiJH-32" style="edgeStyle=orthogonalEdgeStyle;rounded=0;orthogonalLoop=1;jettySize=auto;html=1;entryX=0.5;entryY=1;entryDx=0;entryDy=0;" edge="1" parent="1" source="5fKytqhqKFqzuMiDaiJH-16" target="5fKytqhqKFqzuMiDaiJH-15">
          <mxGeometry relative="1" as="geometry" />
        </mxCell>
        <mxCell id="5fKytqhqKFqzuMiDaiJH-16" value="&lt;b&gt;2)&lt;/b&gt; Enlace de Datos" style="shape=module;align=left;spacingLeft=20;align=center;verticalAlign=top;whiteSpace=wrap;html=1;fillColor=#ffcccc;strokeColor=#36393d;fontColor=#1A1A1A;" vertex="1" parent="1">
          <mxGeometry x="210" y="400" width="100" height="50" as="geometry" />
        </mxCell>
        <mxCell id="5fKytqhqKFqzuMiDaiJH-25" style="edgeStyle=orthogonalEdgeStyle;rounded=0;orthogonalLoop=1;jettySize=auto;html=1;exitX=0.5;exitY=0;exitDx=0;exitDy=0;entryX=0.5;entryY=1;entryDx=0;entryDy=0;" edge="1" parent="1" source="5fKytqhqKFqzuMiDaiJH-17" target="5fKytqhqKFqzuMiDaiJH-16">
          <mxGeometry relative="1" as="geometry" />
        </mxCell>
        <mxCell id="5fKytqhqKFqzuMiDaiJH-17" value="&lt;b&gt;1)&lt;/b&gt; Física" style="shape=module;align=left;spacingLeft=20;align=center;verticalAlign=top;whiteSpace=wrap;html=1;fillColor=#cce5ff;strokeColor=#36393d;fontColor=#1A1A1A;" vertex="1" parent="1">
          <mxGeometry x="210" y="470" width="100" height="50" as="geometry" />
        </mxCell>
      </root>
    </mxGraphModel>
  </diagram>
</mxfile>
